<svg width="720" height="160" xmlns="http://www.w3.org/2000/svg" xmlns:xlink="http://www.w3.org/1999/xlink" xml:space="preserve" overflow="hidden"><defs><clipPath id="clip0"><rect x="280" y="280" width="720" height="160"/></clipPath></defs><g clip-path="url(#clip0)" transform="translate(-280 -280)"><path d="M720 69.5368 720 56.8745 704.276 56.8745 704.276 37.1894 703.747 37.3524 688.977 41.8713 688.686 41.9597 688.686 56.8752 665.375 56.8752 665.375 48.566C665.375 44.6969 666.24 41.7361 667.945 39.7616 669.638 37.8107 672.06 36.8189 675.149 36.8189 677.37 36.8189 679.669 37.3419 681.982 38.3735L682.563 38.6325 682.563 25.2974 682.29 25.1971C680.131 24.4212 677.195 24.0305 673.556 24.0305 668.97 24.0305 664.803 25.0286 661.168 27.0066 657.532 28.9875 654.672 31.8152 652.668 35.4106 650.671 39.0017 649.657 43.1493 649.657 47.7392L649.657 56.8745 638.708 56.8745 638.708 69.5368 649.657 69.5368 649.657 122.881 665.375 122.881 665.375 69.5368 688.686 69.5368 688.686 103.436C688.686 117.397 695.272 124.472 708.259 124.472 710.393 124.472 712.639 124.222 714.933 123.733 717.268 123.23 718.858 122.727 719.794 122.191L720.001 122.069 720.001 109.289 719.361 109.712C718.508 110.28 717.446 110.745 716.201 111.09 714.95 111.442 713.905 111.618 713.096 111.618 710.053 111.618 707.802 110.799 706.406 109.181 704.993 107.548 704.277 104.693 704.277 100.699L704.277 69.5368 720 69.5368ZM603.608 111.62C597.903 111.62 593.405 109.729 590.235 106.003 587.046 102.257 585.43 96.9181 585.43 90.1342 585.43 83.1352 587.046 77.6572 590.237 73.846 593.408 70.0598 597.863 68.1382 603.48 68.1382 608.93 68.1382 613.268 69.9735 616.376 73.596 619.499 77.2372 621.084 82.6713 621.084 89.7519 621.084 96.9195 619.594 102.425 616.655 106.108 613.736 109.764 609.346 111.62 603.608 111.62M604.306 55.2844C593.422 55.2844 584.777 58.4736 578.613 64.7637 572.454 71.0544 569.331 79.7599 569.331 90.6406 569.331 100.975 572.379 109.288 578.393 115.344 584.406 121.402 592.59 124.471 602.715 124.471 613.265 124.471 621.738 121.237 627.9 114.86 634.06 108.49 637.181 99.8664 637.181 89.24 637.181 78.7438 634.252 70.3691 628.473 64.3535 622.692 58.335 614.56 55.2844 604.306 55.2844M543.989 55.2844C536.585 55.2844 530.46 57.1782 525.782 60.9121 521.075 64.6683 518.688 69.5946 518.688 75.5559 518.688 78.6546 519.203 81.4072 520.217 83.7418 521.237 86.0841 522.816 88.1465 524.914 89.8773 526.996 91.5941 530.21 93.3925 534.468 95.2222 538.048 96.6952 540.718 97.9413 542.414 98.9233 544.071 99.8859 545.248 100.853 545.912 101.796 546.558 102.718 546.885 103.98 546.885 105.537 546.885 109.972 543.564 112.13 536.731 112.13 534.196 112.13 531.305 111.6 528.138 110.557 524.994 109.529 522.026 108.025 519.339 106.095L518.686 105.627 518.686 120.76 518.926 120.871C521.15 121.898 523.954 122.764 527.259 123.445 530.557 124.127 533.554 124.474 536.158 124.474 544.192 124.474 550.662 122.571 555.383 118.815 560.133 115.033 562.541 109.99 562.541 103.822 562.541 99.3733 561.245 95.5579 558.69 92.4808 556.153 89.4287 551.749 86.6267 545.606 84.15 540.713 82.1858 537.578 80.5553 536.285 79.3037 535.038 78.0946 534.405 76.3847 534.405 74.2193 534.405 72.2998 535.186 70.7619 536.79 69.5166 538.407 68.265 540.657 67.6284 543.479 67.6284 546.098 67.6284 548.778 68.0421 551.442 68.8528 554.105 69.6635 556.444 70.7494 558.396 72.0776L559.038 72.5164 559.038 58.1616 558.792 58.0557C556.991 57.2833 554.616 56.6223 551.731 56.086 548.859 55.5532 546.254 55.2844 543.989 55.2844M477.712 111.62C472.008 111.62 467.509 109.729 464.34 106.003 461.15 102.257 459.537 96.9195 459.537 90.1342 459.537 83.1352 461.152 77.6572 464.343 73.846 467.513 70.0598 471.967 68.1382 477.586 68.1382 483.034 68.1382 487.372 69.9735 490.481 73.596 493.605 77.2372 495.189 82.6713 495.189 89.7519 495.189 96.9195 493.698 102.425 490.759 106.108 487.84 109.764 483.453 111.62 477.712 111.62M478.413 55.2844C467.526 55.2844 458.88 58.4736 452.72 64.7637 446.56 71.0544 443.435 79.7599 443.435 90.6406 443.435 100.979 446.485 109.288 452.499 115.344 458.512 121.402 466.696 124.471 476.821 124.471 487.37 124.471 495.845 121.237 502.006 114.86 508.165 108.49 511.287 99.8664 511.287 89.24 511.287 78.7438 508.358 70.3691 502.578 64.3535 496.795 58.335 488.664 55.2844 478.413 55.2844M419.576 68.3054 419.576 56.8745 404.049 56.8745 404.049 122.879 419.576 122.879 419.576 89.1153C419.576 83.3741 420.877 78.6574 423.446 75.0948 425.982 71.5747 429.361 69.791 433.487 69.791 434.886 69.791 436.456 70.0215 438.156 70.4777 439.839 70.9312 441.058 71.4236 441.776 71.9418L442.429 72.4147 442.429 56.7616 442.177 56.6537C440.732 56.0394 438.686 55.7294 436.098 55.7294 432.196 55.7294 428.704 56.9831 425.714 59.4515 423.089 61.6211 421.191 64.5958 419.741 68.3054L419.576 68.3054ZM376.244 55.2844C369.121 55.2844 362.768 56.8118 357.364 59.8227 351.949 62.8407 347.76 67.1492 344.911 72.6278 342.074 78.0932 340.634 84.4773 340.634 91.5969 340.634 97.8333 342.03 103.556 344.791 108.6 347.552 113.653 351.461 117.605 356.409 120.347 361.35 123.085 367.06 124.473 373.383 124.473 380.762 124.473 387.062 122.998 392.113 120.088L392.317 119.971 392.317 105.747 391.664 106.223C389.376 107.89 386.819 109.22 384.068 110.179 381.324 111.136 378.822 111.62 376.628 111.62 370.536 111.62 365.645 109.714 362.095 105.956 358.537 102.193 356.733 96.9084 356.733 90.2589 356.733 83.5677 358.615 78.1476 362.322 74.1483 366.018 70.1608 370.918 68.1382 376.884 68.1382 381.988 68.1382 386.961 69.8662 391.665 73.279L392.317 73.752 392.317 58.7641 392.106 58.6457C390.336 57.6546 387.921 56.8362 384.923 56.2156 381.938 55.5964 379.019 55.2844 376.244 55.2844M329.941 56.8752 314.414 56.8752 314.414 122.879 329.941 122.879 329.941 56.8752ZM322.336 28.7569C319.781 28.7569 317.552 29.6269 315.721 31.3507 313.882 33.0794 312.95 35.2559 312.95 37.8246 312.95 40.3529 313.871 42.4897 315.692 44.1725 317.502 45.8503 319.738 46.7008 322.337 46.7008 324.936 46.7008 327.18 45.8503 329.011 44.1753 330.854 42.4897 331.788 40.3536 331.788 37.8246 331.788 35.3458 330.879 33.1915 329.087 31.4203 327.296 29.6526 325.024 28.7569 322.336 28.7569M283.597 52.0053 283.597 122.879 299.442 122.879 299.442 30.7775 277.512 30.7775 249.637 99.188 222.586 30.7775 199.762 30.7775 199.762 122.879 214.652 122.879 214.652 51.9983 215.164 51.9983 243.729 122.879 254.966 122.879 283.086 52.0053 283.597 52.0053Z" fill="#706D6E" transform="matrix(1 0 0 1.00001 280 283.146)"/><path d="M73.0401 73.0401 0 73.0401 0 0 73.0401 0 73.0401 73.0401Z" fill="#F1511B" transform="matrix(1 0 0 1.00001 280 283.146)"/><path d="M153.685 73.0401 80.6459 73.0401 80.6459 0 153.685 0 153.685 73.0401Z" fill="#80CC28" transform="matrix(1 0 0 1.00001 280 283.146)"/><path d="M73.0381 153.713 0 153.713 0 80.6738 73.0381 80.6738 73.0381 153.713Z" fill="#00ADEF" transform="matrix(1 0 0 1.00001 280 283.146)"/><path d="M153.685 153.713 80.6459 153.713 80.6459 80.6738 153.685 80.6738 153.685 153.713Z" fill="#FBBC09" transform="matrix(1 0 0 1.00001 280 283.146)"/></g></svg>